<mxfile host="65bd71144e">
    <diagram id="HIP3nbAZw_EuaXWnEj3U" name="Page-1">
        <mxGraphModel dx="835" dy="535" grid="1" gridSize="10" guides="1" tooltips="1" connect="1" arrows="1" fold="1" page="1" pageScale="1" pageWidth="850" pageHeight="1100" math="0" shadow="0">
            <root>
                <mxCell id="0"/>
                <mxCell id="1" parent="0"/>
                <mxCell id="7" value="http://ics2o.mths.ca" style="swimlane;whiteSpace=wrap;html=1;" parent="1" vertex="1">
                    <mxGeometry x="45" y="50" width="760" height="480" as="geometry"/>
                </mxCell>
                <mxCell id="8" value="&lt;font style=&quot;font-size: 20px;&quot;&gt;Enter age&lt;/font&gt;" style="text;html=1;strokeColor=none;fillColor=none;align=center;verticalAlign=middle;whiteSpace=wrap;rounded=0;" parent="7" vertex="1">
                    <mxGeometry x="35" y="190" width="90" height="30" as="geometry"/>
                </mxCell>
                <mxCell id="9" value="" style="whiteSpace=wrap;html=1;fontSize=20;" parent="7" vertex="1">
                    <mxGeometry x="165" y="260" width="70" height="20" as="geometry"/>
                </mxCell>
                <mxCell id="10" value="Enter day" style="text;html=1;align=center;verticalAlign=middle;resizable=0;points=[];autosize=1;strokeColor=none;fillColor=none;fontSize=20;" parent="7" vertex="1">
                    <mxGeometry x="35" y="250" width="110" height="40" as="geometry"/>
                </mxCell>
                <mxCell id="11" value="" style="rounded=0;whiteSpace=wrap;html=1;fontSize=20;" parent="7" vertex="1">
                    <mxGeometry x="165" y="195" width="70" height="20" as="geometry"/>
                </mxCell>
                <mxCell id="12" value="" style="triangle;whiteSpace=wrap;html=1;fontSize=20;rotation=90;" parent="7" vertex="1">
                    <mxGeometry x="265" y="250" width="15" height="40" as="geometry"/>
                </mxCell>
                <mxCell id="13" value="check" style="text;strokeColor=none;fillColor=none;html=1;fontSize=24;fontStyle=1;verticalAlign=middle;align=center;" parent="7" vertex="1">
                    <mxGeometry x="55" y="340" width="80" height="30" as="geometry"/>
                </mxCell>
                <mxCell id="15" value="Age and day checker" style="rounded=0;whiteSpace=wrap;html=1;" parent="7" vertex="1">
                    <mxGeometry y="20" width="760" height="30" as="geometry"/>
                </mxCell>
                <mxCell id="17" value="Check your age and day to see if you get a discount or regular price" style="text;html=1;strokeColor=none;fillColor=none;align=center;verticalAlign=middle;whiteSpace=wrap;rounded=0;" parent="7" vertex="1">
                    <mxGeometry x="25" y="120" width="370" height="30" as="geometry"/>
                </mxCell>
                <mxCell id="21" value="" style="shape=image;verticalLabelPosition=bottom;labelBackgroundColor=default;verticalAlign=top;aspect=fixed;imageAspect=0;image=data:image/png,/9j/4AAQSkZJRgABAQAAAQABAAD/2wCEAAkGBxMSEBUSEhMWFhUVFhUYGBgWGBUXFRcbFxgYFhYWFRYYHSghGCAlHRgWITEhJikrLi4uFyAzODMtNygtLisBCgoKDg0OGxAQGy0lICUyLS0tLSstLS0tLi0tLS0tLS0tLS0tLS0tLS0tLS0tLS0tLS0tLS0tLS0tLS0tLS0tLf/AABEIALEBHAMBIgACEQEDEQH/xAAcAAEAAgMBAQEAAAAAAAAAAAAABQYDBAcCCAH/xABKEAACAQIDBAQKBwYDBgcAAAABAgADEQQSIQUGMUETIlFhBxQyUnGBkZKhsRUXI3KTwdEzQlNigrKi4fAkNKPC0vEIFjU2RXN0/8QAGgEBAAMBAQEAAAAAAAAAAAAAAAECAwQFBv/EADMRAAIBAgQEAwUIAwAAAAAAAAABAgMRBBIhMRNBUXFhgZEiobHR8AUVIzIzweHxFEJS/9oADAMBAAIRAxEAPwDlBMRE0Kn6J7UTwJkQQSZEWbFOnPFITcopAPxKUyihNqjRm6mHEgEQ1Ca9SlJ2pQE0a9KAQtVJ0LwEbNz7Qq1jwoUbDuaq1gfdSoPXKPXSdg8AmFthsTV5tWVPUiA/NzIexJ1OIiZgREQBERAEREAREQBERAEREAREQBERAEREAREQBERAPkUbPHnH2SU2hsGnTo0XBe7g3uQQdFYEaaeUe323mreAZsQYlwSd/tmanhE7PiYBmRWkA2KOGTzRJChRXzR7BNCm03qLwC1bl0lONoAqLZ+FhbyTOv1cNTHCmnur+k4dsbaTUKqVVALIbgNcjgRrYjtluXwh4g8Uo+6//XKtEpnRFwtMi/Rp7q/pOCbQ2aow7VdbhrDXS1wCLW7+2XZ/CLiPMo+6/wD1yg4/rA9vKECu4ids8B622Y3fiKn9tMflOI4hp2fwEVw2z6q80xLf4qdMxLYHSoiJQCIiAIiIAiIgHlmsLnhMHj1L+InvL+sxbb/3Wv8A/VU/sMz+LJ5i+6JIPaOGFwQQeY1HtkZvHt6lgqHT1g5XMFsgBa5vbQkdklFQAWAsOwSpeE2h0mEpUz+/iqCe8Sv5wtwSOK3roJiMPhyHL4lVZCAuUBr2zG9xwPAGeMZvXQp4lsPkqu1MKaromanSzC69I19CRwABnN9h1jWxuz6p40jQwp9NKk7P8WEk94f/AJ/0YL+2XyK/11IOh1tsU1xVPCkNnq02qKbDIQnEXve/PhNA73UPFmxOWp0a1uh8lcxbOEuBmtlueN/VIfeqsKFbZmKOgTpaZ7PtKGgPrWQ1XDlN3MPfi9WjUJ7ekr5/kRIUU7fXUMum3N6KeGrLQNGvVqOhcChT6Q5QbEkXv8JL4PEdJTSpldM6hsrjK63F7OvIjmJTN5BiPpmh4qaQq+KVP2wcpbProhBvwl4pXsM1r2F7cL87SGSflWqqi7MAO0kAfGY/HqX8RPeX9ZldARYgEd4vNbG4ZOifqL5DfujsMgG4J+zXwP7Kn9xfkJsSAIiIB8mXnm8sGzdjUnpKzkksL8bAd02voGh/N70h4iCdjZYebVyrhpkVptbfwiUWVad9QSSTfnawkhsXZNOpSDuTc30BtaxtJdWKipciipScnHmiMR5sU6stGF3PptlJzBW55gSNCQbd9jNHa+7bU8gprctmJJddAoU2PYesDEaqbsTKk4q7aI+nXmcYiSeyt12KZqo1LEWDLp1gnzI9s9vsSiCQS1wSD1hykOtFOxMaMpK5DtiJrVa03tuYSnSRSlySbam9tLzHsXAJVVmcnQ2ABtyBv8ZPFjlzciOHLNl5lc2loc3I/OdI/wDD/tL7bFYYnykp1VH3SUf+6nIatsDDsLHNr/NPG79WjsvHUMSC1jUFGoS2gSqCGY9wIVv6ZTjxk7Is6Eoptn0PESieFeli6mGp0cLcB3JqkME6ijyWYkWBJFxzt2XlpOyuZwjmaReUYHgbz1ODbB2fj9l1aeIXLkLolakr5ro7hczKNPQRcj0XneZWnUU1cvVpOm7CIiXMhERAMOIoh0ZG8llKnloRY6zNEQBI7a+ykxKotQsBTq06oykDrUzmUG4Ok87eSsaDeL1RSdetmZBUFgCSuUkce2VnYW1MY2ya2Oq11djh6lSkopqvRtTWpxI0e5C8hwkpcwSeG3Mw9N0dTUumIqYgarbPUAUqer5IA0HHvnnbG5WHxNZ6rtWXpQgqpTfLTrZPJ6QW1tw0Ikfj9u4k4PZ3RuqVsb0KtVKBguannZgmgvflPyvtrG0tl4upWGWvh6jolQ08oqqrKFqhDpYgnhppLWZBYN493qONoijVzKqsGGQgEEAgWuCLWJn5jd3qNXCU8IxcU6fRZcpAb7K2W5ItyF9Jo7ubWrYnE1WDDxaiqUtAPtK1g1Vs3ILcLYaXmluficdiia74lOhWtWQ0uhXMwQlR9oDprY8OUaokldubr08TWWuatelURCgNFwhyk3NzlJkvgsN0dNKeZmyKFzOcztYWuzcz3ypVztH6Q8XXFoKZVq1+gTqr0hC0fKuxyg9fu4T3t/GbQbF1KWEdKYpUldEZFY4hyTmTMxGUAW1H/ZZkFyniqgZSp4EEe3SeaDMUUsMrEAkXvY21F+djM0qSY6VMKoUcAAB6haZIiQBERAPmfYtRjSABGl+PpMkLP2j2SN2TUCOaPEgsM3AEgm+ksAwR7ROCr+dnqUl7CRVN4XJy3tcEj5TZ3fqMaeUHgTx9U39p7utVItUUWJPAnj65obOtRqmiTmNyMwFhfTS3qtNLp0cvMxyNVsz2LpgdqIlNFubjLm6vMZrm/PiNOVppbY27RWnl62lwOrwzIOd9dQdZjXBN2iR+09gtV4Oo1B1BPK0rTqWkr7F6tO8Xl3J7dzay18yU82lRnJIAsOkRxxPYJH4xmNRyCLZ2t7TK/glGHqmiTmN+IFhcgWGssaYQkXuIrO8hRhaOpCbeqno7NbQgzV3ert11B5r8jf5SY2nsNqosHA1HInhIihRGFrdGzZictyBYC97cePGXjJOk4rcpKEuMpciYOftEhN6QTRa9j5P9wlmTCMRe4mltPYjVVK51F7cieBvMabSkmzapFuDSOk+CDesY3ALTdr18MFp1LnVlA+zqd9wLE9qtLbtbCipSIIvcEcbXB4gGfOe7uNfY2OFQPnzBc6gWBpkm6m/Pn3FROk7yba6fFU69Al6dGnTcjkLt1rjkesFPZOqpUjb69fI58NhZymltpf8AjzZYMW1BXzVcwp2GZiD+5cgad7X01lxS1tOE47tKvUxeFzE2WlXxFRg5JYgtUNK3EaI6+j1S0eCyvajWo30purKPNVxwHdmVjbvmdFqMsq9TfEYebo8V6W0t0vz73306dC+RETqPMEREAREQDX2h+yqfcf8AtMpWxP8A2y3/AOPE/wBtSX2YqjqqksQFHEmwAHeTJuDnW0aopYHY1d7ilSOGao1iQgNEasAL2mTam2KuL2Nj6zquTpKi0Cqsueirp0bkMSSTrrpw4CXtsZSsb1EsApN2WwDeSTroDy7Zkq1kWwZlF72BIF7C5tfjYaybgpu4KeKV6uAJJUpTxNEtxKuoWqPU4+JkR4OquBTENm0xr1sQq6VdULFrXAyDRTOipjKRAYVEIsbEMpFhe9jf+VvdPZHj1HT7SnqpcdZdVHFhrw75ObcEJVZfplQQcxwZseVhVbN81kTvvt2lSqOjo9PEJTDYaqqsxqFtCikDkeIJlxONpAkGogIBYjMtwoJBJ10AIOvdM6kEAixHEHiPSDIuDzh2JRSwsSoJHYSNRM0RKgREQBERAPl7Cf72SO1j7Rf85PJjWIuASPTI3C7MqJWepUQhAra3Xu469gMmqGGHQUmQk5wbgi1tFYW7rMJ51TXVckj1oK2nVs1zi381vbIFjfGA9pB/w3Msr4d7Hq8j2SHpbLqriOkdCEAJJuunV9MinJK/YmpF6acySXGMeAJ9c/fG381vbNfZlZXU5DfUzfOHe3kzN6F0rlYxTZsWp7ShPPh/2k8mMY6AE200Mjl2RW8YVyhyjibr2Hlftm1s6urlghv1uXw9M1qO6XYzgmmzZ8afzW96V/az566Hmco7edpaBh280zRfd2oyrWyt1XUW6liM2ttb3F4pSSlfwZNSLsZVxbcACbdhnrxp/Nb3pq4LEIzOFN7H/Xpm5eZvQslcq+8v2jqbG9ra68/85Y6Hkj/XfNrYG66YzPUqOydGyhCpWxOpYNmGv7vC3OZdq7P6CqaebNoCDa2h7vVNZL2Ys3wLXEkvA0qnCx4XFxy7iR3cZbvBhUIxjr20Gv8A0umU/E+2VCqOqfQZ0TwVbPUUWxBZHdiUBRrlEGU5Kg5Pm1Pdlk0YtzXgb/aFRQoST56LuX6Iid58wIiIAmvXoFrWdkt5uXX05gZsRJBp0sKQQelqNbkclj6bKDPO2MKa1B6amxYAX7NQb8D8pvRFwVPH7t1KlSsQ6hajUirX6/VOGzZhkyiww5I4g5+Atrv1NmP0mEYCn9ipVyb3sVXRAQQRdQb6EZRrYkGdiLsFSr7tVSEANOy0DTOreV0eIpiwy6gmvcnS2Xgb6eae7lXJVRujy1qFWmwDtlBqVa9S1uj6wtVtmuvA6a6W+JOZgrFDd+otHISjt0VVLksty1Y1FJYC66cxex5GTezqLJRpo+XMqKrZQFW4ABygAWF+AsJuSG23ttcOUTK1SrUJCU08prc+4f67ZWUrK7LU6cpyyxV2btXBliT0tRb8lK2Hous94bDlL3d3vbyiDb0WAmnsrafS5lZejqL5VMsrMt9VJy8iNZDYPeB32o+GFjSAI4aqyAFjf711seweurqRVvE1hh6knJJflV3ry02676deRboiJYwEREA+fdo44PRdM3FSOB7NJGbsYsqrlmNhlAvcgegcuU3dr6Jfub5SL2Iv2DH+e1vUs8uD/Dfke1P9RFi+lF84ewzFi8cr03TN5SsOB5giZbTU2l5N+/8AIzBS1NmtCK3Wq5S7dgX/AJpYPpQecPYZW9gp9jUN+a+nSx/OWKmNB6BNsQ7TZlR1ifrbSUgi/EW4HnK5u02Sqx81T85OY7yPWJBbCF+mN+Q+JaTTd4S8hU/PEs30ovaPYZ6G1ha2bTssbTDRHVHoEx43yD6vnMLmtiv7BS1dgOSsPYwEsJkDsSiHqVgTYEEe8TwlY2kVFV1plsoJAJN720JneqXFm9eS5HDKrworTrz/AIOnbub5UcKBQrUyAWLGoNQCeF1tfTQaXmxtjHJiaxqUDnSyjMNASONr8ZyTDnU+idF3bUphFJGvXP8AiNvynT/jrKkzCOMnTlmgkn6mavTIU3/KVXZO9eI2dtGpVoNoSA9Mk9HUAA0Ycj2MNR3i4Nxw1fpaZNrautvukrf4XnOdt4NziajBdCQRqPNWWp0YwehGIxlWurTtbwX9s+n90t6aG0cOK1A6iwembZ6beaw+R4GT8+T92dq4rAYhcRh9GGjKT1Ki80cX1HfxB1E+lt1tv0sdhlr0tL6OhtmpuOKNb58wQecvKNjlJqIiVAiIgCY6lQAXJAHaTYStb6bcq4WmOipksQSXykpTFwLk8LkmwB/ylY2RuzXx6LiK+JbKxaw6ztoSpsCQqajleZSq2llirv0O6jg1Knxas1GO3V37Iv1HbOHaoKS1kZzeyqwY6C54dwklK1sPc+hhqgqq1RnAIBYiwuLGwUDlN7ebG9BhK1QGxC2U9jMQqn1Egy6by3kY1KdOVRQottOy101+RXt4N8H6XxfBrnqXylrZutzVBztrcnQWmocVtOhlqYivSRSwGWrksedrUkJGgPAzz4LMGCa1Yi5FkU8wD1m9vV9kv2IoK6lHUMpFiGAIPpBmMIymszb8Oh316lHC1ODGEZJWu2k5N21tfRbnnCYtKqB6bq6ngVIIlP3qxBw20cNimUmkEKEgXsTnB9dnB77GYdhp4ptV8KpPRVlzKp5G2dfZZ17xaXupTDCzAEdhFx7DL/qR6NP4HO0sLVuvahKPZuMlbxs09PIqGy9pCtiq+OVSKFPDlMzC3SFDnLD0WI9nomt4NMGWNbFv5Tsyg+k53PrJT3ZIeEHFClgii6Goy0wB2eUbD0Lb1zzQxhwVHD4WnSNSu6XyAhRc3Z2ZjwF83s5SlrT9p7a+b8DpzOph3w42c2opX2hBXbbdvNuy7FuiROydpGrmp1FCVqds6Bs2XNqpDWFwR2SWnQmmro8mcHB5Zb/X9p7NCIiCpxPp1835St74VL9Hl0XrXtprpbh65JeKJ2H2mV/eIZRYed+U8TDv8RH0NZewyzbKrjoULC5KqSfSBNzp1835SHShqisOCD4TN4onZ8TM5OzNIq6NPe6pekmUWGbW3PTS9vXN7YVb7BCwuSOPo0kFvCoVbDhdflJzD1VOEw9EhrhQx4W4MdNf5hy7ZtpwV3ZjtVJHp1835SE3rq3oDKLdcZrWGlja9u+02fFE7D7TIfb6BUIHDq/OZ0X+IjSovYZv7FcmghPePYxA+AmTHtZPWP1kbVSqmCR6dTowqlmJUNcHUWBB5mVKtt7EMLNVJH3UHyWdUMNKo24tb+PyOWeIjTsmnt4fMlsBtanRFQtfM2qgDjx58BqZWc02qb3W54zSvPThTUdep5c6jm7dDLTM6TsnTAU+9FPvG/5zmaGdVGMWjswoQbmituy4QHXXt9MuzJmnuhXz0n7qrH3gD+sqW8S2xL+r5AflJ7cWp+1X7h/uB/KRO9iWxLegfMyeZBDS1eDnextnYxXYnoKlkrryy8qg70Jv6Mw5i1ViWIPsVGBAINwdQRwPeJ7lC8DO2zidmIjG74ZjRPblUA0j7hVf6TL7MiwiRu1ds0MOAatQLfgNSx9CjUyL2ZvfQxFdaNJKhJDHMQoUAC9zre3AcOYlHOKdmzaGHqzg5xi8q5209R4RP/T6npp/3rK/u/vnQw+EpUilQsobNlC2BLE8WIvxl62lgUr02pVBdGtcXI4G4II4agTQp7sYRafR+L0yLWuVBc9+c9a/feUlCefNFrY6qGIw6w/CrRk/azaWXJL5mHYW9eHxTZELK/muACbcctiQfRxmPwg0y2Aq25FCfQHF5zTalE4PGsqE3pVAVPO1wyX9ov652TEUlrUmRh1aiEHtsw/zlKc5VIyjLc2xNCnhKtKtT1i7NddLP3pr37lG8FeNA6WiTqbOvfbqt/yzos4njsHiNn4gEEqwN1ceSw7RfQ3HFTJPEb543EL0KKoZtPslbO3o1NvVM6dZQjllujqxf2bPEVONSayytr5b/v3umShxQxG3EyarSBW44dRXzf4ridFlP3H3aOGU1aw+1cWA45F4kX7SbX9A75cJvSTSu927nmY+pTlUjCm7qEVG/W3Mo287dPtPC4biqdduzmxB/pQe9G9FdsNtCji2RmpdHkbKL28vN6D1gR22Mm6GwQuPfF5r56eXKRwbqi4PZlXh3ydkcNu7ejvdeWxo8VCHDUVeKg01trK7lr56PXZFT3bqPiMVVxnRtTpNTWnTDCzPY3LEfn39xltiJpGNkcdarxJXSsrJJeCVl3EREsZHB7ysbwm7qO1j+QmztLeI0b5qRvpYFrFgeY04fpKjtLbvTHVLaEeVfjx5Ty8PhauZSa07r9me1XxdLK4317NfFI6FQcNUJBBAW1wb85tyG3XoZMOultBp2E9Yj4zHtTb5oXzUj/LdrZ9bG2nLQ+uc3BlObjDW3il8WdHFjCClPS/d/Awbzvy7x8FkvgyCygEEKltDfsEoe094ulPkZeP71+Pqlr3RoZcOpta4v72vytOitRlTorNo+n12MKVaNSs8mqtv9efoT0r2876etfzM97a3gbDsAaDEG9mzWBt2aStbQ3h6dh1MuvnX7hylcPhqmZStp3XzLVsTSs4317Mld5sUq4OnRDgk5LgG+ii9yB3gSmXmxiKQAuBzmreevRo8KOW9zyKtV1ZZmrEhgcRbSwPpF5tdIPMT3RIym3CboabIwZlNUeYnuiXXemrkoAacALHhxA/IykUFJYAC+vD9eyWffDHJUSnka5OrLlYZbX0JIsePInhKykrpcyyhJxcktEYdz8T/ALQVsBmRuAtqCD+s872PlxHBTdRxF+2R+72JFPE02PC5B7gwIJtzte/qm5vhVV6+ZDmQC2axAPqOo9clySlYhQk4uSWiIfp/5V92fnT/AMqe7MUS9yp1jwB7Q/2rE0NBnpJUAAt+zfKT/wARZ26fP3gHB+lX7sJVv+LQn0DMZ7koh8du/h61Xpa1POwULqWy2BJGl+8zdw2BpU/2dJE+4ir7bCesdiOjpPUtfIjNbhfKCbX9U2ZTKk72NJVZySi5Npcr6EJvFjMRSph8PTWpY9dSGLZbcUCn9ePCVqp4R1y2XDt0nCxYZQfSBc+iwnQJj6MXvYX7ba+2VlGTd4yt5XN6NahGNqlLM+uZrye9/ccx2Nu3iMZiTiMSpRGbMQwKl+eVVOoHAXPLhedRn7EU6aghisXPESTaSS0SWy+v2Rhr0VcZXUMDyYAj2GeMNg6dPSmip91VX5CbMS5y3YiIgCImHEVMqMw5KT7BeAZomHDVMyKx4lQfaLzNAEREA4bhdhUamKr1HTOPscoIRyhDVVIU2sPIF+zWSzbIoAMSg0uRYJwCK/m68TrOVpvliqRZlZRotwFABszkC39bTG+/+MIIz8b8lHFQnZpoBOWphnJ7rTY7aWLUVs9dX6nWMXgERWI5K5HDkygcuwyhpSXEY+q1QBlohFVSOrc31I565piG+VV8Mwd6hq1FNiBTCLmIOh8rgOHCVenj6lJmZHYEjUg6trfW/rlVg5xu4tJtWXrd+662LSxsXlUk2k7vbp6b6+R0zKv8NPcX9JkFW3AD2Ccv/wDM+I/iv7V/SblLbOIZQembX0fpMfu+q/8AZe/5HR940v8Al+75nvfnFl8Rl5IALcuGY/MeyVykesPSJs7QYlrkkk3JJ4nhNVOInp0oZIKPQ8yc88nLrcmFFJ1Fw3qIm4uxKJwxr3fqsFy+sC4PPiJF4VuU3hin6Po8xyE3y30vob29Qm5iYRQo9j+0TIopAWs/tExxJBtUa6r5OcX+6fnFWsjeVnPuj5TViVyxveyuWzytlu7dDMj0wbgOCO8TO+MBFiXt/R+k0ohxi90iYzlFWTfqZfsux/aJvbN2dTrCoQWXIpbtBsGNr308k9vo0NoyZqGKdAwRioYWax4jXQ+0+2WKHVvAJglNXFV1Uiy06YJt+8S7Ae6ntE7NKN4HtkeL7KpsRZsQWrH0PYU/8CofXLzMJO7JRpbXplsPVVRcmnUAA4klSABPz6RX+HV/CqfpN6JBJio1MyhrEX5MCD6weEyxEgEStPpS7uz5UZlVVdqdsmhLFSMxJBOptbLpxJ1MRXogZiK2oDaVqwGrKunXtxYSUqYQ5iyOULG7WCkMbAAkEcbAC4twEeL1f4x9xJZAj66U0p1KhFe1NiP21fUA2LDr8OPsM08Xj6FNlUrXOar0QIr1vK6tr9fS+b4Sc8Wq/wAY+4k/XoVCdKxH9KfmIuDAiGlVRVZilTMMrszlWAzBlZiTawIIva5W1tbyc0aODytnZ2d7ZQWyjKCQSFCgAXIF+ZsNdBN6QDBia+QXys2trKpY+wTRxW0AUYClWuVYD7NuYkrEAwYRSKaA8Qqg+oCZ4iQBERAPiitiAwOh1t85qz8iWBI0scoUCx0AHKYq+KDX0OomnEm5FhJGljVCgWOg7pHRCdiTbxGIDHQGYhUF5hiLg3ExQBvYzY+kV7D8JFxJzMixKfSK9h+EfSK9h+Ei4jOxYlPpFew/CPpFew/CRcRnYsSn0ivYfhH0ivYfhIuIzsWJT6RXsPwk5uVs07Rx1LCqrZWN6h82mutQ3HDTQd7CU+dY8EO9ezNm0alTEPU8Zqmxy0ywSmp6qg87nrH+nsjOxY+hqVMKoVRYAAADgANABMk5x9dWyvPrfhNH11bK8+t+E0pYk6PE5x9dWyvPrfhNH11bK8+t+E0A6PE5x9dWyvPrfhNH11bK8+t+E0A6PE5x9dWyvPrfhNH11bK8+t+E0WB0eJzj66tlefW/CaPrq2V59b8JosDo8TnH11bK8+t+E0fXVsrz634TRYHR4nOPrq2V59b8Jo+urZXn1vwmgHR4nOPrq2V59b8Jo+urZXn1vwmgHR4nOPrq2V59b8Jo+urZXn1vwmgHzJL/AODzc2hjqFWtUaqHpObAKookInS5WdtXLWYZU1UDMdJQJZd3t9cTgqJoUeiyF3fr01ZgalPonysdVuoXh5o77yDoVXwW4StVrOtSvSVcRiAQFQJkD4kKlFWOY5eiTrnqtcgG4NtWv4LsHkqNTr4j7NlUhxS1LrhKi2sOS4mx7x2ca63hT2gSxPQZmzXbolzEFqjBSwNyF6WoAOV+25m3u14TaiVW8cGaiwuVpU6RYsEoU1v0mlstBD23F4BS94sAuHxmIw6klaNarTBNrkI5UE256SNkjt/aHjGLr4gLlFatUqBTqQHcsATzteR0AREQBERAEREAREQBERAEREAREQBERAEREAREQBERAEREA2MJkLjpCQtmuV43ynL8bSQrYXC5Cy13J5KUAN7MRz4aC57+/TzsjblTDKyolJszKftKauRbiATwDDQ93C3Gbrb2VSVJo4c5CxH2QA6wIswBGYAMQAdPSdYBqNRwecDpKuTKbmwvmuLDVRpx9nfPwJhPOqjTnbjrfgvr/McpFd9KuYFqOHIvdh0YGfrZzcknW99e+YsNvbVS2Wlh9CTrTvqS7E6ntdvVYcIBAVsuY5b5bnLfja+l++0xzPi8QalRqhABdixCiwuTc2HKYIAiIgCIiAIiIAiIgCIiAIiIAiIgCIiAIiIAiIgCIiAIiIAiIgCIiAIiIAiIgCIiAIiIB//Z;" parent="7" vertex="1">
                    <mxGeometry x="430" y="100" width="299" height="186.35" as="geometry"/>
                </mxCell>
                <mxCell id="23" value="you are eligible for a discount price" style="text;html=1;strokeColor=none;fillColor=none;align=center;verticalAlign=middle;whiteSpace=wrap;rounded=0;" vertex="1" parent="7">
                    <mxGeometry x="25" y="400" width="205" height="30" as="geometry"/>
                </mxCell>
            </root>
        </mxGraphModel>
    </diagram>
</mxfile>